<?xml version="1.0" standalone="no"?>
<!DOCTYPE svg PUBLIC "-//W3C//DTD SVG 20010904//EN"
 "http://www.w3.org/TR/2001/REC-SVG-20010904/DTD/svg10.dtd">
<svg version="1.0" xmlns="http://www.w3.org/2000/svg"
 width="400.000000pt" height="400.000000pt" viewBox="0 0 400.000000 400.000000"
 preserveAspectRatio="xMidYMid meet">
<metadata>
Created by potrace 1.11, written by Peter Selinger 2001-2013
</metadata>
<g transform="translate(0.000000,400.000000) scale(0.100000,-0.100000)"
fill="#000000" stroke="none">
<path d="M64 3243 c8 -27 151 -503 276 -923 185 -621 370 -1239 400 -1340 16
-52 43 -144 61 -205 18 -60 36 -114 40 -119 7 -8 777 -11 786 -3 2 3 10 27 18
53 20 75 146 537 150 554 2 8 22 83 45 165 23 83 48 174 56 204 l14 53 -121
442 c-158 572 -167 605 -193 706 l-23 85 -12 -42 c-11 -41 -48 -188 -76 -308
-8 -33 -37 -154 -65 -268 -27 -115 -52 -218 -54 -230 -10 -48 -47 -203 -52
-217 -7 -17 -16 15 -184 645 -66 248 -127 473 -135 500 -8 28 -26 98 -42 158
l-27 107 -434 0 c-408 0 -433 -1 -428 -17z"/>
<path d="M1610 3256 c0 -3 170 -627 336 -1231 14 -49 40 -146 59 -215 19 -69
57 -208 85 -309 28 -102 55 -201 60 -220 4 -20 18 -70 30 -111 12 -41 23 -82
25 -90 8 -38 117 -425 120 -429 7 -6 815 -4 822 3 4 4 2 21 -5 39 -6 17 -13
43 -15 57 -3 14 -28 113 -55 220 -53 204 -191 744 -198 770 -2 8 -15 60 -29
115 -14 55 -62 242 -106 415 -45 173 -108 419 -140 545 -32 127 -71 278 -86
338 l-27 107 -438 0 c-241 0 -438 -2 -438 -4z"/>
<path d="M3160 3256 c0 -3 -36 -150 -81 -328 -44 -178 -83 -333 -85 -345 -2
-12 -9 -34 -14 -48 -5 -14 -7 -25 -5 -25 2 0 0 -11 -5 -26 -6 -14 -12 -37 -15
-52 -3 -15 -14 -63 -25 -107 -12 -44 -23 -91 -26 -104 -3 -14 -7 -27 -9 -31
-2 -3 32 -147 76 -320 44 -173 82 -323 84 -333 2 -10 18 -73 35 -140 18 -67
33 -129 35 -137 2 -8 18 -69 35 -135 17 -66 33 -129 36 -140 26 -116 51 -197
57 -180 3 11 73 256 156 545 82 289 238 833 345 1209 108 377 196 688 196 693
0 4 -178 8 -395 8 -217 0 -395 -2 -395 -4z"/>
</g>
</svg>
