<?xml version="1.0" standalone="no"?>
<!DOCTYPE svg PUBLIC "-//W3C//DTD SVG 20010904//EN"
 "http://www.w3.org/TR/2001/REC-SVG-20010904/DTD/svg10.dtd">
<svg version="1.0" xmlns="http://www.w3.org/2000/svg"
 width="512.000000pt" height="512.000000pt" viewBox="0 0 512.000000 512.000000"
 preserveAspectRatio="xMidYMid meet">
<metadata>
Created by potrace 1.11, written by Peter Selinger 2001-2013
</metadata>
<g transform="translate(0.000000,512.000000) scale(0.100000,-0.100000)"
fill="#000000" stroke="none">
<path d="M1251 5096 c-20 -21 -33 -24 -139 -29 -574 -29 -1030 -484 -1059
-1057 -5 -106 -8 -117 -32 -145 l-26 -30 28 24 27 24 0 -633 0 -634 -27 -30
-28 -31 28 24 27 24 0 -633 0 -634 -27 -30 c-27 -30 -27 -30 -2 -8 l26 23 6
-163 c9 -289 81 -486 254 -700 l65 -81 -189 -191 -188 -191 191 188 191 189
81 -65 c214 -173 411 -245 700 -254 l163 -6 -23 -26 c-22 -25 -22 -25 8 2 l30
27 634 0 633 0 -24 -28 -24 -27 31 28 30 27 634 0 633 0 -24 -28 -24 -27 30
26 c28 24 39 27 145 32 572 29 1028 485 1057 1057 5 106 8 117 32 145 l26 30
-27 -24 -28 -24 0 633 0 634 28 30 27 31 -27 -24 -28 -24 0 633 0 634 28 30
c26 30 26 30 1 8 l-26 -23 -6 163 c-9 289 -81 486 -254 700 l-65 81 189 191
188 191 -191 -188 -191 -189 -81 65 c-214 173 -411 245 -700 254 l-163 6 23
26 c22 25 22 25 -8 -1 l-30 -28 -634 0 -633 0 24 28 24 27 -31 -27 -30 -28
-634 0 -633 0 23 25 c13 14 21 25 18 25 -2 0 -14 -11 -27 -24z m-106 -1386
c-77 -77 -142 -140 -145 -140 -4 0 -19 54 -35 120 -40 165 -44 160 164 160
l156 0 -140 -140z m218 128 c11 -9 53 -162 132 -477 l116 -465 -178 -180 -178
-181 177 175 c98 96 179 172 181 170 2 -3 55 -212 117 -465 62 -253 115 -463
119 -468 4 -4 94 347 201 780 l195 788 164 168 165 167 97 0 c79 0 99 -3 111
-17 8 -10 61 -200 116 -423 l101 -405 -152 -155 -152 -155 151 149 c83 81 154
144 156 140 3 -5 61 -233 129 -507 l124 -497 -152 -152 c-84 -84 -154 -150
-157 -147 -2 2 -89 352 -192 777 -104 424 -191 769 -195 764 -4 -4 -55 -203
-113 -442 l-107 -436 -414 -414 -413 -413 -11 39 c-5 21 -120 480 -256 1018
l-246 980 148 148 c153 153 175 167 216 136z m1052 -138 c-82 -82 -151 -147
-153 -145 -8 8 61 266 75 281 11 10 42 14 121 14 l107 0 -150 -150z m1370 90
c-33 -33 -61 -56 -63 -51 -6 19 19 91 36 100 9 6 33 11 52 11 l34 0 -59 -60z
m381 39 c18 -20 17 -29 -131 -617 l-150 -597 -297 -299 -297 -300 25 100 c13
54 107 434 209 844 l185 744 72 73 72 73 147 0 c135 0 147 -2 165 -21z m-448
-1876 c-87 -351 -166 -648 -174 -660 -14 -23 -17 -23 -248 -23 -209 0 -234 2
-248 18 -9 9 -34 97 -58 196 l-42 179 153 154 c99 99 155 148 157 138 5 -22
22 -8 22 18 0 15 92 113 297 319 164 164 298 298 299 298 1 0 -70 -287 -158
-637z m-1508 -140 c-67 -274 -129 -508 -136 -520 -14 -23 -17 -23 -248 -23
-204 0 -235 2 -247 16 -8 9 -26 62 -40 118 l-26 101 405 407 c224 224 408 406
410 403 2 -2 -51 -228 -118 -502z"/>
</g>
</svg>
